<?xml version="1.0" encoding="UTF-8" standalone="no"?>
<!-- Created with Inkscape (http://www.inkscape.org/) -->

<svg
   width="135.32181mm"
   height="78.57843mm"
   viewBox="0 0 135.32181 78.57843"
   version="1.1"
   id="svg1"
   xml:space="preserve"
   inkscape:version="1.3.2 (091e20e, 2023-11-25, custom)"
   sodipodi:docname="logo.svg"
   xmlns:inkscape="http://www.inkscape.org/namespaces/inkscape"
   xmlns:sodipodi="http://sodipodi.sourceforge.net/DTD/sodipodi-0.dtd"
   xmlns="http://www.w3.org/2000/svg"
   xmlns:svg="http://www.w3.org/2000/svg"><sodipodi:namedview
     id="namedview1"
     pagecolor="#ffffff"
     bordercolor="#000000"
     borderopacity="0.25"
     inkscape:showpageshadow="2"
     inkscape:pageopacity="0.0"
     inkscape:pagecheckerboard="0"
     inkscape:deskcolor="#d1d1d1"
     inkscape:document-units="mm"
     inkscape:zoom="1.4289282"
     inkscape:cx="240.38997"
     inkscape:cy="214.14652"
     inkscape:window-width="1920"
     inkscape:window-height="991"
     inkscape:window-x="-9"
     inkscape:window-y="-9"
     inkscape:window-maximized="1"
     inkscape:current-layer="layer1" /><defs
     id="defs1" /><g
     inkscape:label="Katman 1"
     inkscape:groupmode="layer"
     id="layer1"
     transform="translate(-28.365796,-130.1569)"><g
       id="g60"
       transform="translate(-24.811721,-75.283945)"><path
         style="fill:#8d01c1;fill-opacity:1"
         d="m 54.765017,260.98848 v -20.41896 l 0.616806,0.40414 c 0.339243,0.22228 1.535145,0.98012 2.657559,1.68408 1.122414,0.70396 2.323701,1.45852 2.669526,1.6768 0.345825,0.21828 1.833153,1.17078 3.305174,2.11667 1.472021,0.94588 2.95686,1.89838 3.299643,2.11666 0.342782,0.21829 1.380255,0.86689 2.305495,1.44135 0.92524,0.57446 2.24658,1.43766 2.936312,1.91823 0.689731,0.48057 1.306069,0.87376 1.36964,0.87376 0.06357,0 1.017292,0.59713 2.11938,1.32697 1.102088,0.72983 2.003797,1.35939 2.003797,1.39901 0,0.0396 -1.160859,0.0633 -2.579687,0.0526 -1.418828,-0.0107 -2.69875,-0.0864 -2.844271,-0.16831 -0.145521,-0.0819 -2.764896,-1.67111 -5.820833,-3.5317 -3.055937,-1.86059 -5.943203,-3.61474 -6.416146,-3.89812 l -0.859895,-0.51524 v 12.61542 12.61543 l 0.992187,-0.59126 c 0.545703,-0.3252 1.349375,-0.79604 1.785937,-1.04633 0.436563,-0.25029 1.74559,-1.03778 2.908949,-1.74998 1.163359,-0.7122 2.315479,-1.41397 2.560267,-1.55949 0.244788,-0.14552 1.004585,-0.59201 1.688439,-0.99219 l 1.24337,-0.72761 h 3.803133 3.803133 v 0.27289 c 0,0.15009 -0.201739,0.3503 -0.44831,0.44492 -0.24657,0.0946 -2.300398,1.3519 -4.564062,2.79395 -2.263664,1.44206 -4.611466,2.96825 -5.217339,3.39154 -0.605873,0.42329 -1.161645,0.76962 -1.23505,0.76962 -0.0734,0 -2.677893,1.64428 -5.787752,3.65396 -3.109859,2.00968 -5.798539,3.74311 -5.974845,3.85207 l -0.320557,0.19812 z m 30.00274,15.85104 c -0.597191,-0.13291 -1.351274,-0.52424 -1.675742,-0.86962 -0.324468,-0.34538 -0.69622,-1.08595 -0.826117,-1.64572 -0.129896,-0.55977 -0.239016,-6.50664 -0.242487,-13.21526 l -0.0063,-12.1975 0.302049,-0.89938 c 0.166127,-0.49465 0.482691,-1.10823 0.703475,-1.36351 0.220785,-0.25528 0.865883,-0.5892 1.433551,-0.74206 0.567669,-0.15286 2.331412,-0.27439 3.91943,-0.27007 l 2.887304,0.008 0.912766,0.38138 c 0.502021,0.20976 1.116652,0.69255 1.365846,1.07287 0.249195,0.38032 0.524341,1.19393 0.611436,1.80804 0.08709,0.6141 0.150293,6.47436 0.14044,13.02279 l -0.01792,11.90625 -0.374504,1.05834 -0.374504,1.05833 -1.058333,0.52119 -1.058333,0.52119 -2.778125,0.0433 c -1.527969,0.0238 -3.266735,-0.0655 -3.863925,-0.19838 z m 4.065151,-15.47612 0.06893,-11.41385 -0.433199,-0.16624 c -0.238259,-0.0914 -0.596702,-0.0305 -0.796538,0.13531 l -0.36334,0.30155 v 10.92617 c 0,6.00939 0.07469,11.1208 0.165967,11.35868 l 0.165968,0.4325 0.561636,-0.0801 0.561637,-0.0801 z m 52.029952,15.47736 c -0.5953,-0.13284 -1.33498,-0.47689 -1.64374,-0.76454 -0.30875,-0.28765 -0.70002,-1.02853 -0.86948,-1.6464 l -0.30811,-1.1234 -0.009,-11.77396 c -0.005,-6.47568 0.0764,-12.33442 0.18042,-13.01943 l 0.18914,-1.24546 0.79953,-0.67277 c 0.43975,-0.37001 0.8797,-0.68187 0.97767,-0.693 0.098,-0.0111 0.41627,-0.0717 0.70731,-0.13452 0.29104,-0.0629 1.71979,-0.11728 3.175,-0.12094 1.45521,-0.004 3.00302,0.0611 3.43958,0.14394 0.43656,0.0828 1.083,0.36129 1.43652,0.6188 0.35352,0.25751 0.79095,0.87835 0.97206,1.37964 l 0.32929,0.91145 0.0201,3.84327 0.0201,3.84327 -2.57969,-0.01 -2.57969,-0.01 -0.0743,-3.08023 -0.0743,-3.08023 -0.35517,-0.29476 c -0.19534,-0.16212 -0.54884,-0.22044 -0.78557,-0.1296 l -0.43041,0.16517 -0.0186,0.96388 c -0.0102,0.53013 -0.0229,5.58875 -0.028,11.24138 l -0.009,10.27751 0.26596,0.26596 c 0.14628,0.14628 0.51608,0.18659 0.82177,0.0896 l 0.5558,-0.1764 v -4.48009 -4.48009 h 2.66895 2.66896 l -0.0893,5.5374 -0.0893,5.5374 -0.55296,0.74646 c -0.30413,0.41055 -0.89944,0.91707 -1.32291,1.1256 l -0.76996,0.37914 -2.77812,0.0536 c -1.52797,0.0295 -3.26519,-0.0551 -3.86049,-0.18795 z M 96.833765,261.26787 v -15.61041 h 2.362491 2.362494 l 0.27772,1.38906 c 0.15275,0.76399 0.70678,3.71078 1.23118,6.54844 0.52441,2.83765 1.01925,5.60876 1.09966,6.15801 0.0804,0.54925 0.23242,1.05193 0.33781,1.11706 0.10539,0.0651 0.17862,-3.30128 0.16273,-7.48092 l -0.0289,-7.59936 2.31511,-0.0764 2.3151,-0.0764 v 15.63064 15.63065 l -2.42575,-0.0761 -2.42574,-0.0761 -0.0914,-0.66146 c -0.0503,-0.3638 -0.6736,-3.8547 -1.38511,-7.75755 -0.71151,-3.90286 -1.37166,-7.17411 -1.46701,-7.26945 -0.0953,-0.0953 -0.15371,3.27649 -0.12971,7.49297 0.024,4.21648 0.031,7.81515 0.0155,7.99705 l -0.0282,0.33073 h -2.248957 -2.248958 z m 15.145275,0.0661 0.0683,-15.54427 2.3075,-0.0763 2.30751,-0.0763 0.14452,0.6055 c 0.0795,0.33303 0.73964,3.81215 1.467,7.7314 0.72736,3.91924 1.38753,7.19095 1.46705,7.27046 0.0795,0.0795 0.12622,-3.12713 0.10379,-7.12589 -0.0224,-3.99876 -0.0298,-7.53836 -0.0165,-7.86578 l 0.0243,-0.59531 h 2.24896 2.24896 v 15.61041 15.61042 h -2.38125 c -1.30969,0 -2.38125,-0.0774 -2.38125,-0.17197 0,-0.0946 -0.41693,-2.44607 -0.92651,-5.22552 -0.50958,-2.77945 -0.96999,-5.29168 -1.02314,-5.58272 -0.0531,-0.29104 -0.24695,-1.3626 -0.43066,-2.38125 -0.18372,-1.01864 -0.42345,-2.02023 -0.53275,-2.22574 -0.1093,-0.20551 -0.14337,3.21754 -0.0757,7.60678 l 0.12301,7.98042 h -2.40569 -2.40569 z m 15.21789,15.35245 c -0.0568,-0.11278 -0.095,-7.11068 -0.0847,-15.55089 l 0.0186,-15.34583 h 4.23221 4.23221 v 1.98437 1.98438 l -1.5875,0.0767 -1.5875,0.0767 0.0791,3.92836 0.0791,3.92836 1.11153,-0.002 c 0.61135,-10e-4 1.3199,0.0121 1.57456,0.0299 l 0.46302,0.0323 v 1.98438 1.98437 h -1.59287 -1.59286 l 0.0715,5.49011 0.0715,5.4901 h 1.45521 1.45521 v 1.98437 1.98438 l -4.14748,0.0728 c -2.28112,0.04 -4.19398,-0.0195 -4.25081,-0.13229 z m 27.05141,-13.30193 v -13.49375 h -1.32291 -1.32292 v -2.11667 -2.11666 h 5.29167 5.29166 v 2.11666 2.11667 h -1.32291 -1.32292 v 13.49375 13.49375 h -2.64583 -2.64584 z m 9.58903,-2.04396 0.0683,-15.55083 h 4.23333 4.23333 v 1.98437 1.98438 l -1.5875,0.13229 -1.5875,0.13229 v 3.77045 3.77045 l 0.26459,0.0404 c 0.14552,0.0223 0.74083,0.0687 1.32291,0.10331 0.58209,0.0346 1.19119,0.0758 1.35356,0.0917 l 0.29523,0.0288 -0.0166,1.98438 -0.0166,1.98437 h -1.53536 -1.53537 l -0.0144,0.99219 c -0.008,0.5457 -0.0377,2.9865 -0.0661,5.42399 -0.0285,2.43749 0.0375,4.44667 0.14669,4.46484 0.10914,0.0182 0.82352,0.0479 1.5875,0.0661 l 1.38906,0.0331 v 1.98437 1.98438 l -4.30159,0.0727 -4.3016,0.0727 z m 11.1125,0.0154 0.0683,-15.56628 4.6302,0.0197 4.63021,0.0197 0.9466,0.41076 0.94659,0.41076 0.50029,1.02474 0.50029,1.02474 0.004,12.5677 0.004,12.56771 -0.52489,1.05834 c -0.29333,0.59143 -0.87507,1.23342 -1.31865,1.4552 l -0.79374,0.39688 -4.83077,0.0882 -4.83077,0.0882 z m 6.57504,11.28893 h 0.24578 l -0.069,-11.31094 -0.069,-11.31094 -0.70409,-0.0814 -0.70409,-0.0814 0.002,11.32624 c 0.001,6.22944 0.0623,11.42366 0.13554,11.54272 0.0732,0.11906 0.30942,0.14883 0.52488,0.0662 0.21546,-0.0827 0.50236,-0.15033 0.63754,-0.15033 z M 60.968475,261.40017 c 1.06e-4,-4.65667 0.03611,-6.52441 0.08,-4.15053 0.04389,2.37388 0.04381,6.18388 -1.93e-4,8.46667 -0.044,2.28279 -0.07991,0.34052 -0.07981,-4.31614 z m 15.360082,-15.00875 c -1.164166,-0.71905 -2.221762,-1.40846 -2.350212,-1.53202 -0.12845,-0.12356 -0.231698,-4.47306 -0.229441,-9.66554 0.0023,-5.19249 -0.07316,-9.7298 -0.1676,-10.08291 l -0.171705,-0.64203 -1.186354,0.77407 c -0.652495,0.42575 -4.216629,2.64153 -7.920299,4.92396 l -6.733944,4.14987 -0.542097,-0.29574 c -0.298153,-0.16266 -0.869518,-0.47502 -1.269701,-0.69412 -0.400182,-0.21911 -0.727604,-0.5022 -0.727604,-0.6291 0,-0.1269 0.625078,-0.59888 1.389063,-1.04884 0.763984,-0.44996 4.127499,-2.57381 7.474478,-4.71967 3.346979,-2.14586 6.936236,-4.45494 7.976126,-5.13129 l 1.89071,-1.22974 -0.0053,-3.45802 c -0.0029,-1.90192 -0.07985,-3.41778 -0.170918,-3.36859 -0.09106,0.0492 -1.951508,1.18755 -4.13432,2.52969 -2.182812,1.34214 -4.204049,2.5797 -4.491637,2.75014 -0.287587,0.17043 -1.203789,0.75636 -2.036003,1.30206 -0.832214,0.54571 -1.570761,0.99219 -1.641216,0.99219 -0.07045,0 -0.845107,0.47625 -1.721451,1.05834 -0.876343,0.58208 -1.666982,1.05833 -1.756976,1.05833 -0.08999,0 -0.682778,0.35719 -1.3173,0.79375 -0.634521,0.43656 -1.254924,0.79375 -1.378672,0.79375 -0.123749,0 -0.231959,-0.69815 -0.240468,-1.55144 l -0.01547,-1.55145 2.801681,-1.75689 c 1.540925,-0.9663 5.004337,-3.18585 7.696473,-4.93235 2.692135,-1.7465 5.070392,-3.25732 5.285016,-3.35738 0.214624,-0.10006 1.631502,-1.00444 3.148618,-2.00973 1.517116,-1.00529 3.171226,-2.05968 3.675802,-2.34308 0.504575,-0.2834 0.963675,-0.46901 1.020223,-0.41247 0.05655,0.0566 0.0723,9.21324 0.03501,20.34821 l -0.0678,20.2454 z m 9.797648,-6.05862 c -0.723168,-0.11239 -1.605282,-0.3593 -1.960253,-0.5487 -0.354971,-0.18939 -0.860727,-0.8206 -1.123903,-1.40268 l -0.478502,-1.05834 -0.0035,-12.70287 -0.0035,-12.70287 0.404918,-0.79088 c 0.222705,-0.43498 0.666855,-0.99484 0.987,-1.24412 0.320145,-0.24929 1.085975,-0.53038 1.701846,-0.62465 0.61587,-0.0943 1.925558,-0.19125 2.910416,-0.2155 0.984859,-0.0242 2.595736,0.0414 3.579727,0.14585 l 1.789075,0.18994 0.783998,0.55825 0.783997,0.55826 0.312156,1.11117 0.312156,1.11117 0.03005,11.1125 c 0.01653,6.11188 -0.06041,11.88641 -0.170969,12.83229 -0.114719,0.98148 -0.411619,2.00375 -0.691588,2.38125 -0.269814,0.3638 -0.95545,0.82061 -1.523634,1.01513 -0.568185,0.19451 -2.223688,0.38189 -3.678896,0.4164 -1.455208,0.0345 -3.237516,-0.0292 -3.960685,-0.1416 z m 3.963058,-4.53107 c 0.07961,-0.32742 0.111645,-5.46393 0.07119,-11.41446 l -0.07356,-10.81916 -0.440843,-0.278 -0.440843,-0.27801 -0.419053,0.34779 -0.419053,0.34778 v 11.02719 11.02718 l 0.3175,0.3175 c 0.174625,0.17463 0.529544,0.3175 0.78871,0.3175 0.269384,0 0.533205,-0.25498 0.615955,-0.59531 z m 70.376787,4.63564 c -0.43656,-0.0479 -1.29043,-0.26844 -1.89748,-0.49015 l -1.10374,-0.4031 -0.51903,-1.04905 -0.51902,-1.04904 -0.044,-4.97853 -0.044,-4.97852 2.92353,-0.008 c 1.60795,-0.004 2.93743,0.0653 2.95441,0.15456 0.017,0.0892 0.0508,1.97601 0.0751,4.19288 l 0.0443,4.03066 0.29363,0.29363 c 0.16149,0.16149 0.51463,0.25118 0.78475,0.19929 l 0.49113,-0.0943 0.0723,-4.38179 0.0723,-4.38179 -0.46921,-0.40516 c -0.25806,-0.22284 -1.54077,-0.97269 -2.85045,-1.66634 -1.30969,-0.69364 -2.69744,-1.55584 -3.08389,-1.91598 -0.38676,-0.36043 -0.83802,-1.19248 -1.00379,-1.8508 -0.1691,-0.67157 -0.28464,-2.9381 -0.26349,-5.16907 0.0207,-2.18519 0.16149,-4.34416 0.31284,-4.7977 0.15134,-0.45354 0.51881,-1.09385 0.8166,-1.42291 0.29779,-0.32905 1.02543,-0.733 1.61699,-0.89765 0.59157,-0.16465 2.50432,-0.29418 4.25057,-0.28784 l 3.175,0.0115 1.04866,0.35696 1.04866,0.35697 0.56604,0.84123 c 0.32076,0.4767 0.62639,1.45126 0.7053,2.24896 0.0766,0.77425 0.12387,2.65788 0.10508,4.18585 l -0.0342,2.77812 h -2.91041 -2.91042 l -0.075,-3.16487 -0.075,-3.16487 -0.32185,-0.20452 c -0.17702,-0.11248 -0.45157,-0.20633 -0.61011,-0.20856 -0.15854,-0.002 -0.40684,0.26384 -0.55177,0.59126 -0.14493,0.32742 -0.24281,1.94104 -0.21751,3.58582 l 0.046,2.99051 0.37348,0.34839 c 0.20541,0.1916 1.59529,0.98466 3.08863,1.76234 l 2.71514,1.41396 0.72444,1.04553 0.72443,1.04553 -0.005,5.84328 -0.005,5.84329 -0.478,0.97161 -0.47801,0.97162 -1.10409,0.44521 -1.1041,0.44521 -2.77812,0.0515 c -1.52797,0.0283 -3.13531,0.0124 -3.57188,-0.0355 z m 15.62731,-0.10259 c -0.71831,-0.11209 -1.61128,-0.42956 -1.98437,-0.7055 -0.3731,-0.27594 -0.85445,-0.84818 -1.06969,-1.27166 l -0.39133,-0.76995 -0.006,-5.02709 -0.006,-5.02708 h 2.91041 2.91042 l 0.13229,4.36562 0.13229,4.36563 0.59489,0.0845 0.59488,0.0845 0.23052,-0.61365 c 0.12678,-0.33752 0.20787,-2.28054 0.1802,-4.31783 -0.0277,-2.03729 -0.13363,-3.88276 -0.23548,-4.10104 -0.10184,-0.21828 -1.40313,-1.03708 -2.89175,-1.81954 -1.48863,-0.78247 -2.92714,-1.61562 -3.1967,-1.85146 -0.26956,-0.23584 -0.68544,-0.78626 -0.92418,-1.22317 l -0.43407,-0.79437 -0.0607,-4.23334 c -0.0334,-2.32833 0.0472,-4.70037 0.17901,-5.27119 0.13183,-0.57082 0.46733,-1.34472 0.74555,-1.71979 0.27822,-0.37506 0.97073,-0.84381 1.53892,-1.04166 l 1.03306,-0.35972 3.175,-0.006 c 1.74625,-0.003 3.659,0.1274 4.25056,0.29061 0.59157,0.1632 1.33565,0.57359 1.65353,0.91195 l 0.57797,0.61522 0.27359,1.48 c 0.15048,0.814 0.23983,2.83044 0.19855,4.48098 l -0.075,3.00099 -2.84427,0.0751 -2.84427,0.0751 -0.0244,-0.33968 c -0.0134,-0.18683 -0.0526,-1.47078 -0.0871,-2.85322 -0.0345,-1.38245 -0.0831,-2.70917 -0.10788,-2.94826 -0.0248,-0.23909 -0.22373,-0.50325 -0.44201,-0.58701 -0.21829,-0.0838 -0.57547,-0.0838 -0.79375,0 l -0.39688,0.1523 v 3.44825 3.44825 l 0.46302,0.36682 c 0.25466,0.20174 1.29011,0.79371 2.30101,1.31547 1.01089,0.52177 2.29986,1.24023 2.86437,1.5966 l 1.02639,0.64793 0.49876,1.10847 0.49876,1.10847 -0.0122,5.29166 -0.0121,5.29167 -0.34252,0.99009 c -0.18839,0.54455 -0.62477,1.2204 -0.96974,1.50188 -0.34496,0.28148 -1.04393,0.59578 -1.55325,0.69844 -0.50932,0.10266 -2.05714,0.20983 -3.43958,0.23816 -1.38245,0.0283 -3.10125,-0.0402 -3.81957,-0.15229 z m -77.157768,-0.16743 c -0.0082,-0.10914 -0.01372,-6.56828 -0.01235,-14.35364 0.0014,-7.78537 0.008,-14.73345 0.01484,-15.44018 l 0.01235,-1.28498 5.093228,0.0985 5.09323,0.0985 1.21608,0.59505 c 0.684,0.3347 1.37544,0.9117 1.58029,1.31875 l 0.36421,0.7237 0.0945,5.0031 0.0945,5.0031 -0.43066,0.95003 c -0.23686,0.52251 -0.79233,1.20518 -1.23438,1.51704 l -0.80372,0.56701 0.78599,0.46429 c 0.43229,0.25536 0.97823,0.86745 1.21321,1.36019 l 0.42722,0.8959 v 6.34103 6.34102 h -2.91042 -2.91041 v -6.16479 -6.16479 l -0.3175,-0.3175 c -0.17463,-0.17463 -0.59135,-0.3175 -0.92604,-0.3175 h -0.60855 v 6.48229 6.48229 h -2.91041 c -1.60073,0 -2.917096,-0.0893 -2.925257,-0.19844 z m 7.465818,-17.85317 c 0.11761,-0.18531 0.21383,-2.12287 0.21383,-4.30568 0,-2.18281 -0.0875,-4.10531 -0.19438,-4.27221 -0.10691,-0.1669 -0.49204,-0.3455 -0.85585,-0.39688 l -0.66145,-0.0934 -0.0728,4.4882 c -0.04,2.46851 -0.0162,4.63571 0.053,4.81599 0.0692,0.18028 0.39085,0.27674 0.71481,0.21435 0.32397,-0.0624 0.68526,-0.26505 0.80286,-0.45036 z m 10.80527,4.55786 v -13.49375 h -1.45521 -1.45521 v -2.11666 -2.11667 h 5.82084 5.82083 l 0.0248,0.39687 c 0.0137,0.21828 0.0248,0.93266 0.0248,1.5875 0,0.65485 -0.0112,1.42875 -0.0248,1.7198 l -0.0248,0.52916 h -1.4039 -1.40391 l 0.017,12.89844 c 0.009,7.09414 -0.0276,13.16633 -0.0821,13.49375 l -0.0992,0.59531 h -2.87957 -2.87957 z m 10.72664,13.17202 c -0.0614,-0.18685 -0.089,-7.18582 -0.0613,-15.55327 l 0.0503,-15.21354 5.15938,0.002 5.15937,0.002 1.05834,0.52715 1.05833,0.52714 0.52917,1.05834 0.52916,1.05833 0.0577,4.54884 0.0577,4.54884 -0.28122,0.87512 c -0.15467,0.48131 -0.69238,1.24988 -1.19491,1.70792 l -0.91369,0.83281 0.77155,0.54939 c 0.42435,0.30217 0.9361,0.93943 1.13722,1.41615 l 0.36567,0.86676 v 6.21771 6.21771 l -2.84427,0.0751 -2.84427,0.0751 -0.0199,-0.33968 c -0.0109,-0.18682 -0.0407,-2.99318 -0.0661,-6.23634 l -0.0463,-5.89667 -0.39687,-0.25084 c -0.21829,-0.13797 -0.60312,-0.25267 -0.8552,-0.2549 l -0.45831,-0.004 -0.0709,6.41614 -0.0708,6.41615 -2.84912,0.0752 -2.84912,0.0751 z m 7.33476,-17.63388 0.32714,-0.32719 v -4.07456 -4.07455 l -0.26458,-0.25568 c -0.14552,-0.14063 -0.50271,-0.2954 -0.79375,-0.34394 l -0.52917,-0.0883 -0.0721,4.8279 -0.0721,4.82789 0.53872,-0.0822 c 0.2963,-0.0452 0.68593,-0.22945 0.86586,-0.4094 z m 9.19068,2.33909 v -15.61652 l 4.69636,0.0723 4.69635,0.0722 0.0151,1.71979 c 0.008,0.94589 -0.0261,1.84763 -0.0766,2.00388 -0.0515,0.1596 -0.69577,0.27115 -1.47032,0.25457 -0.75826,-0.0162 -1.51495,0.0127 -1.68153,0.0643 l -0.30288,0.0938 v 3.81884 c 0,2.10036 0.10653,3.83372 0.23673,3.85191 0.1302,0.0182 0.83204,0.0628 1.55965,0.0992 0.7276,0.0364 1.42103,0.081 1.54096,0.0992 0.11992,0.0182 0.20542,0.89627 0.18999,1.9513 l -0.0281,1.91823 -1.74751,0.0776 -1.74751,0.0776 0.0362,5.47763 0.0362,5.47762 1.63892,-0.0297 1.63893,-0.0297 0.10261,0.29532 c 0.0564,0.16242 0.0766,1.00969 0.0448,1.88282 -0.0318,0.87312 -0.0713,1.67679 -0.0879,1.78593 -0.0166,0.10914 -2.11371,0.19844 -4.66032,0.19844 h -4.63021 z"
         id="path61" /><path
         style="fill:#000000;fill-opacity:1"
         d="m 53.353906,283.84565 c -0.09701,-0.097 -0.176389,-9.95644 -0.176389,-21.90984 v -21.73346 l 0.330729,-0.43297 c 0.181901,-0.23813 0.628385,-0.50274 0.992188,-0.58804 l 0.661458,-0.15508 2.191758,1.39737 c 1.205468,0.76855 2.48158,1.57596 2.835806,1.79424 0.354225,0.21829 2.972128,1.88516 5.81756,3.70417 2.845433,1.81901 6.689008,4.28944 8.541278,5.48984 1.85227,1.2004 3.629427,2.29641 3.949238,2.43558 0.319812,0.13918 0.788979,0.56974 1.042594,0.9568 l 0.461119,0.70376 -0.381136,0.66433 -0.381135,0.66434 -1.719792,0.6237 -1.719791,0.6237 -2.881154,0.004 -2.881154,0.004 -1.352179,-0.83662 c -0.743699,-0.46014 -2.688728,-1.65077 -4.322287,-2.64583 -1.633559,-0.99507 -3.092075,-1.80921 -3.241146,-1.80921 h -0.271038 v 8.62726 8.62727 l 0.330729,-0.12772 c 0.181901,-0.0702 2.235729,-1.29107 4.564063,-2.71293 l 4.233333,-2.58521 4.101041,-0.0468 c 2.255573,-0.0258 4.396275,0.0587 4.757115,0.18763 0.360841,0.12896 0.74597,0.37586 0.855844,0.54865 0.109874,0.1728 0.201594,1.03757 0.203823,1.92171 l 0.0041,1.60752 -0.595312,0.53237 c -0.327422,0.2928 -1.845469,1.31004 -3.373438,2.26053 -1.527968,0.95049 -5.516562,3.48782 -8.863541,5.63851 -3.346979,2.15069 -6.323541,4.04666 -6.614583,4.21326 -0.291041,0.16659 -1.303073,0.8026 -2.248958,1.41335 l -1.719792,1.11044 -1.477256,0.003 c -0.812492,10e-4 -1.556632,-0.0769 -1.653646,-0.17388 z m 7.706513,-6.4884 c 3.109859,-2.00968 5.714348,-3.65396 5.787752,-3.65396 0.07341,0 0.629177,-0.34633 1.23505,-0.76962 0.605873,-0.42329 2.953675,-1.94948 5.217339,-3.39154 2.263664,-1.44205 4.317492,-2.69933 4.564062,-2.79395 0.246571,-0.0946 0.44831,-0.29483 0.44831,-0.44492 v -0.27289 h -3.803133 -3.803133 l -1.24337,0.72761 c -0.683854,0.40018 -1.443651,0.84667 -1.688439,0.99219 -0.244788,0.14552 -1.396908,0.84729 -2.560267,1.55949 -1.163359,0.7122 -2.472386,1.49969 -2.908949,1.74998 -0.436562,0.25029 -1.240234,0.72113 -1.785937,1.04633 l -0.992187,0.59126 V 260.0818 247.46638 l 0.859895,0.51524 c 0.472943,0.28338 3.360209,2.03753 6.416146,3.89812 3.055937,1.86059 5.675312,3.44985 5.820833,3.5317 0.145521,0.0819 1.425443,0.15759 2.844271,0.16831 1.418828,0.0107 2.579687,-0.0129 2.579687,-0.0526 0,-0.0396 -0.901709,-0.66918 -2.003797,-1.39901 -1.102088,-0.72984 -2.055809,-1.32697 -2.11938,-1.32697 -0.06357,0 -0.679909,-0.39319 -1.36964,-0.87376 -0.689732,-0.48057 -2.011072,-1.34377 -2.936312,-1.91823 -0.92524,-0.57446 -1.962713,-1.22306 -2.305495,-1.44135 -0.342783,-0.21828 -1.827622,-1.17078 -3.299643,-2.11666 -1.472021,-0.94589 -2.959349,-1.89839 -3.305174,-2.11667 -0.345825,-0.21828 -1.547112,-0.97284 -2.669526,-1.6768 -1.122414,-0.70396 -2.318316,-1.4618 -2.657559,-1.68408 l -0.616806,-0.40414 v 20.41896 20.41896 l 0.320557,-0.19812 c 0.176306,-0.10896 2.864986,-1.84239 5.974845,-3.85207 z m 23.839213,2.84879 c -0.8157,-0.16848 -1.809103,-0.51994 -2.207561,-0.78102 -0.398459,-0.26108 -0.981224,-1.0302 -1.295034,-1.70915 l -0.570563,-1.23445 -0.0776,-13.4628 -0.0776,-13.46279 0.30664,-1.47708 0.306641,-1.47708 0.845273,-0.84528 c 0.4649,-0.4649 1.355768,-0.98273 1.979706,-1.15074 0.623938,-0.16801 2.412805,-0.30762 3.97526,-0.31024 1.562455,-0.003 3.321178,0.12457 3.908273,0.28266 0.587096,0.15809 1.395604,0.54556 1.796686,0.86105 0.401081,0.31549 0.949791,1.05923 1.219354,1.65275 l 0.490116,1.07913 0.0058,-1.48035 0.0058,-1.48034 0.483854,-0.43789 0.483855,-0.43788 h 2.691145 2.691143 l 0.52916,0.52917 c 0.29105,0.29104 0.52917,0.76026 0.52917,1.04272 0,0.28245 0.0944,0.57187 0.2097,0.64315 0.11533,0.0713 0.23691,-0.24911 0.27017,-0.71199 0.0333,-0.46287 0.2593,-0.99042 0.50233,-1.17232 l 0.44186,-0.33073 h 2.48036 c 1.3642,0 2.71067,0.12325 2.99214,0.27389 0.28148,0.15064 0.51177,0.46569 0.51177,0.7001 v 0.4262 l 0.64883,-0.70009 0.64882,-0.7001 h 2.6079 2.6079 l 0.49937,0.36515 c 0.27465,0.20083 0.64211,0.82591 0.81657,1.38906 l 0.31721,1.02392 0.0277,-0.95118 0.0277,-0.95118 0.48385,-0.43789 0.48386,-0.43788 h 2.57088 2.57088 l 0.64943,0.64943 c 0.35719,0.35719 0.64943,0.54429 0.64943,0.41578 0,-0.12851 0.1871,-0.42076 0.41577,-0.64943 l 0.41578,-0.41578 h 4.56074 4.56074 l 0.45057,0.33073 c 0.24781,0.1819 0.54166,0.86599 0.653,1.5202 l 0.20244,1.18947 0.33914,-0.81875 c 0.19258,-0.46492 0.76121,-1.05229 1.31579,-1.35914 0.53716,-0.29722 1.39337,-0.63081 1.9027,-0.74133 0.50932,-0.11051 2.09715,-0.18845 3.52851,-0.1732 1.48956,0.0159 3.20928,0.20412 4.02143,0.44022 0.78043,0.22688 1.49521,0.53588 1.58841,0.68668 l 0.16945,0.27418 0.61969,-0.66866 0.61969,-0.66865 10.69659,0.004 10.6966,0.004 0.48865,0.3573 0.48864,0.35731 0.60471,-0.39622 0.60471,-0.39622 4.83073,0.0988 4.83073,0.0988 1.30906,0.65785 1.30907,0.65786 0.47259,0.93397 c 0.25993,0.51368 0.56809,1.64478 0.68479,2.51354 0.11671,0.86877 0.19684,7.17551 0.17807,14.01499 l -0.0341,12.43542 -0.30698,1.08993 c -0.16884,0.59947 -0.54247,1.38932 -0.83029,1.75523 -0.28783,0.36591 -1.03156,0.8783 -1.65275,1.13865 l -1.12943,0.47335 -4.67687,0.11562 -4.67687,0.11562 -0.86144,-0.42974 -0.86144,-0.42974 -0.20624,0.3345 -0.20625,0.33449 -4.40921,0.0844 -4.40922,0.0844 -0.73123,-0.30289 -0.73124,-0.30289 -0.12342,-0.70754 c -0.0679,-0.38915 -0.11072,-6.33324 -0.0952,-13.2091 l 0.0282,-12.50157 h -0.8599 -0.85989 v 12.96459 12.96458 l -0.52917,0.52917 -0.52917,0.52916 h -2.91041 -2.91042 l -0.52917,-0.52916 -0.52916,-0.52917 V 266.295 253.33041 h -0.66146 -0.66146 v 2.75923 2.75923 l -0.41577,0.41577 -0.41578,0.41577 h -3.02381 -3.0238 v 1.32292 1.32292 h 2.85154 2.85155 l 0.58803,0.41188 0.58804,0.41187 v 6.05739 6.0574 l -0.29972,1.39753 -0.29971,1.39753 -0.84075,0.84074 c -0.46265,0.46265 -1.36899,0.98595 -2.01538,1.16364 -0.64606,0.17759 -2.16096,0.35555 -3.36647,0.39546 -1.2055,0.0399 -2.98157,-0.0927 -3.94683,-0.29462 l -1.75503,-0.36719 -0.65095,-0.59988 c -0.35803,-0.32993 -0.79737,-0.94076 -0.97632,-1.35739 l -0.32536,-0.75751 -0.14016,1.24354 c -0.0771,0.68395 -0.27833,1.38202 -0.44719,1.55126 l -0.30703,0.30772 -4.50486,0.0838 -4.50487,0.0838 -0.64198,-0.42064 c -0.35308,-0.23135 -0.64674,-0.62625 -0.65256,-0.87756 l -0.0106,-0.45692 -0.39297,0.72425 c -0.21613,0.39833 -0.68393,0.79727 -1.03956,0.88652 -0.35563,0.0893 -1.7315,0.12054 -3.05751,0.0695 l -2.41091,-0.0928 -0.37539,-0.51359 c -0.20646,-0.28247 -0.37539,-0.78849 -0.37539,-1.12448 0,-0.33599 -0.0893,-0.61061 -0.19843,-0.61028 -0.10914,3.3e-4 -0.21148,0.3646 -0.22741,0.80949 -0.0159,0.44489 -0.17052,0.95063 -0.34352,1.12387 l -0.31455,0.31499 -2.4346,0.0872 c -1.33904,0.048 -2.75291,-0.0349 -3.14195,-0.18418 l -0.70733,-0.27143 -0.10533,-0.60957 -0.10532,-0.60957 -0.29152,0.69144 c -0.16034,0.38029 -0.56855,0.76562 -0.90713,0.85628 -0.33859,0.0907 -1.60571,0.16647 -2.81582,0.16846 -1.21011,0.002 -2.42646,-0.11747 -2.70299,-0.26547 -0.27654,-0.14799 -0.6527,-0.77307 -0.83593,-1.38906 l -0.33315,-1.11998 -0.0885,0.9882 -0.0884,0.98821 -0.5723,0.40086 -0.57231,0.40085 h -2.395792 -2.395799 l -0.588038,-0.41187 -0.588038,-0.41188 -0.01169,-1.37406 -0.01169,-1.37406 -0.549116,1.04155 c -0.302014,0.57285 -0.802767,1.24729 -1.112786,1.49877 -0.310018,0.25147 -1.039919,0.60146 -1.622002,0.77776 -0.582084,0.17629 -2.129896,0.34928 -3.439584,0.38441 -1.309687,0.0351 -3.048641,-0.074 -3.864341,-0.24245 z m 7.568508,-3.7326 1.058333,-0.52119 0.374504,-1.05833 0.374504,-1.05834 0.01792,-11.90625 c 0.0099,-6.54843 -0.05335,-12.40869 -0.14044,-13.02279 -0.0871,-0.61411 -0.362241,-1.42772 -0.611436,-1.80804 -0.249194,-0.38032 -0.863825,-0.86311 -1.365846,-1.07287 l -0.912766,-0.38138 -2.887304,-0.008 c -1.588018,-0.004 -3.351761,0.11721 -3.91943,0.27007 -0.567668,0.15286 -1.212766,0.48678 -1.433551,0.74206 -0.220784,0.25528 -0.537348,0.86886 -0.703475,1.36351 l -0.302049,0.89938 0.0063,12.1975 c 0.0035,6.70862 0.112591,12.65549 0.242487,13.21526 0.129897,0.55977 0.501649,1.30034 0.826117,1.64572 0.324468,0.34538 1.078551,0.73671 1.675742,0.86962 0.59719,0.13291 2.335956,0.22218 3.863925,0.19838 l 2.778125,-0.0433 z m -4.993408,-3.96842 c -0.09128,-0.23788 -0.165967,-5.34929 -0.165967,-11.35868 v -10.92617 l 0.36334,-0.30155 c 0.199836,-0.16585 0.558279,-0.22674 0.796538,-0.13531 l 0.433199,0.16624 -0.06893,11.41385 -0.06894,11.41385 -0.561637,0.0801 -0.561636,0.0801 z m 60.796698,4.09096 c 0.42347,-0.20853 1.01878,-0.71505 1.32291,-1.1256 l 0.55296,-0.74646 0.0893,-5.5374 0.0893,-5.5374 h -2.66896 -2.66895 v 4.48009 4.48009 l -0.5558,0.1764 c -0.30569,0.097 -0.67549,0.0567 -0.82177,-0.0896 l -0.26596,-0.26596 0.009,-10.27751 c 0.005,-5.65263 0.0178,-10.71125 0.028,-11.24138 l 0.0186,-0.96388 0.43041,-0.16517 c 0.23673,-0.0908 0.59023,-0.0325 0.78557,0.1296 l 0.35517,0.29476 0.0743,3.08023 0.0743,3.08023 2.57969,0.01 2.57969,0.01 -0.0201,-3.84327 -0.0201,-3.84327 -0.32929,-0.91145 c -0.18111,-0.50129 -0.61854,-1.12213 -0.97206,-1.37964 -0.35352,-0.25751 -0.99996,-0.53597 -1.43652,-0.6188 -0.43656,-0.0828 -1.98437,-0.1476 -3.43958,-0.14394 -1.45521,0.004 -2.88396,0.0581 -3.175,0.12094 -0.29104,0.0628 -0.60933,0.12338 -0.70731,0.13452 -0.098,0.0111 -0.53792,0.32299 -0.97767,0.693 l -0.79953,0.67277 -0.18914,1.24546 c -0.10402,0.68501 -0.18522,6.54375 -0.18042,13.01943 l 0.009,11.77396 0.30811,1.1234 c 0.16946,0.61787 0.56073,1.35875 0.86948,1.6464 0.30876,0.28765 1.04844,0.6317 1.64374,0.76454 0.5953,0.13284 2.33252,0.21742 3.86049,0.18795 l 2.77812,-0.0536 z m -46.91157,-0.0484 c 0.0155,-0.1819 0.009,-3.78057 -0.0155,-7.99705 -0.024,-4.21648 0.0344,-7.58831 0.12971,-7.49297 0.0953,0.0953 0.7555,3.36659 1.46701,7.26945 0.71151,3.90285 1.33481,7.39375 1.38511,7.75755 l 0.0914,0.66146 2.42574,0.0761 2.42575,0.0761 V 261.2675 245.63686 l -2.3151,0.0764 -2.31511,0.0764 0.0289,7.59936 c 0.0159,4.17964 -0.0573,7.54606 -0.16273,7.48092 -0.10539,-0.0651 -0.25741,-0.56781 -0.33781,-1.11706 -0.0804,-0.54925 -0.57525,-3.32036 -1.09966,-6.15801 -0.5244,-2.83766 -1.07843,-5.78445 -1.23118,-6.54844 l -0.27772,-1.38906 h -2.362494 -2.362491 v 15.61041 15.61042 h 2.248958 2.248957 z m 15.23929,-7.64969 c -0.0677,-4.38924 -0.0336,-7.81229 0.0757,-7.60678 0.1093,0.20551 0.34903,1.2071 0.53275,2.22574 0.18371,1.01865 0.37751,2.09021 0.43066,2.38125 0.0532,0.29104 0.51356,2.80327 1.02314,5.58272 0.50958,2.77945 0.92651,5.13093 0.92651,5.22552 0,0.0946 1.07156,0.17197 2.38125,0.17197 h 2.38125 v -15.61042 -15.61041 h -2.24896 -2.24896 l -0.0243,0.59531 c -0.0134,0.32742 -0.006,3.86702 0.0165,7.86578 0.0224,3.99876 -0.0243,7.20541 -0.10379,7.12589 -0.0795,-0.0795 -0.73969,-3.35122 -1.46705,-7.27046 -0.72736,-3.91925 -1.38751,-7.39837 -1.467,-7.7314 l -0.14452,-0.6055 -2.30751,0.0763 -2.3075,0.0763 -0.0683,15.54427 -0.0683,15.54427 h 2.40569 2.40569 z m 18.99607,5.86375 v -1.98437 h -1.45521 -1.45521 l -0.0715,-5.4901 -0.0715,-5.49011 h 1.59286 1.59287 v -1.98437 -1.98438 l -0.46302,-0.0323 c -0.25466,-0.0177 -0.96321,-0.0312 -1.57456,-0.0299 l -1.11153,0.002 -0.0791,-3.92836 -0.0791,-3.92836 1.5875,-0.0767 1.5875,-0.0767 v -1.98438 -1.98437 h -4.23221 -4.23221 l -0.0186,15.34583 c -0.0102,8.44021 0.0279,15.43811 0.0847,15.55089 0.0568,0.11278 1.96969,0.17231 4.25081,0.13229 l 4.14748,-0.0728 z m 23.94479,-11.37708 v -13.49375 h 1.32292 1.32291 v -2.11667 -2.11666 h -5.29166 -5.29167 v 2.11666 2.11667 h 1.32292 1.32291 v 13.49375 13.49375 h 2.64584 2.64583 z m 12.83229,11.37708 v -1.98437 l -1.38906,-0.0331 c -0.76398,-0.0182 -1.47836,-0.0479 -1.5875,-0.0661 -0.10914,-0.0182 -0.17515,-2.02735 -0.14669,-4.46484 0.0285,-2.43749 0.0582,-4.87829 0.0661,-5.42399 l 0.0144,-0.99219 h 1.53537 1.53536 l 0.0166,-1.98437 0.0166,-1.98438 -0.29523,-0.0288 c -0.16237,-0.0159 -0.77147,-0.0571 -1.35356,-0.0917 -0.58208,-0.0346 -1.17739,-0.0811 -1.32291,-0.10331 l -0.26459,-0.0404 v -3.77045 -3.77045 l 1.5875,-0.13229 1.5875,-0.13229 v -1.98438 -1.98437 h -4.23333 -4.23333 l -0.0683,15.55083 -0.0683,15.55084 4.3016,-0.0727 4.30159,-0.0727 z m 12.96458,1.5875 c 0.44358,-0.22178 1.02532,-0.86377 1.31865,-1.4552 l 0.52489,-1.05834 -0.004,-12.56771 -0.004,-12.5677 -0.50029,-1.02474 -0.50029,-1.02474 -0.94659,-0.41076 -0.9466,-0.41076 -4.63021,-0.0197 -4.6302,-0.0197 -0.0683,15.56628 -0.0683,15.56628 4.83077,-0.0882 4.83077,-0.0882 z m -4.97439,-3.61998 c -0.0732,-0.11906 -0.13421,-5.31328 -0.13554,-11.54272 l -0.002,-11.32624 0.70409,0.0814 0.70409,0.0814 0.069,11.31094 0.069,11.31094 h -0.24578 c -0.13518,0 -0.42208,0.0676 -0.63754,0.15033 -0.21546,0.0827 -0.45166,0.0529 -0.52488,-0.0662 z m -43.67369,-4.48815 0.0353,-3.30185 -0.38762,0.14874 c -0.21319,0.0818 -0.85413,0.14874 -1.42431,0.14874 h -1.03669 v 3.13445 3.13445 l 0.89562,-0.06 c 0.49259,-0.033 1.05469,0.0383 1.24911,0.15846 0.19442,0.12016 0.41647,0.15556 0.49344,0.0787 0.077,-0.0769 0.15581,-1.62563 0.1752,-3.44165 z m 36.87413,0.0227 v -3.58749 l -0.33073,0.20719 c -0.1819,0.11395 -0.86651,0.26981 -1.52136,0.34634 l -1.19062,0.13916 -0.003,2.97656 -0.003,2.97656 0.26801,0.0227 c 0.14741,0.0125 0.65381,0.051 1.12534,0.0856 0.47152,0.0346 0.93785,0.14341 1.03628,0.24184 0.0984,0.0984 0.27818,0.17897 0.39945,0.17897 0.12127,0 0.22049,-1.61437 0.22049,-3.58749 z m -36.83,-13.48757 v -1.99381 l -0.56885,0.18992 c -0.31287,0.10445 -0.95581,0.19374 -1.42875,0.19842 l -0.8599,0.008 v 1.62224 1.62224 l 0.7276,-0.048 c 0.40019,-0.0264 0.96573,0.0439 1.25677,0.15638 0.29105,0.11243 0.60656,0.21196 0.70115,0.22119 0.0946,0.009 0.17198,-0.88045 0.17198,-1.97704 z m 36.83,-0.10717 V 252.568 l -0.6708,0.34801 c -0.36894,0.19141 -1.02379,0.31798 -1.45521,0.28127 -0.43143,-0.0367 -0.79929,0.0377 -0.81748,0.16546 -0.0182,0.12771 -0.0548,0.73822 -0.0813,1.35669 -0.0265,0.61846 -0.006,1.25462 0.0454,1.41369 0.0515,0.15906 0.41549,0.26788 0.80887,0.24183 0.39338,-0.0261 0.95335,0.0446 1.2444,0.15704 0.29104,0.11243 0.61846,0.21196 0.7276,0.22119 0.10914,0.009 0.19844,-0.92867 0.19844,-2.08421 z m -95.970194,-3.7899 c -0.323347,-0.17976 -1.603269,-0.96113 -2.84427,-1.7364 -1.241002,-0.77526 -2.281003,-1.4301 -2.311115,-1.4552 -0.03011,-0.0251 -0.119408,-4.40069 -0.198437,-9.72351 l -0.14369,-9.67787 -5.63232,3.4824 -5.63232,3.4824 -1.676536,0.30891 -1.676537,0.30892 -0.893226,-0.39359 c -0.491275,-0.21648 -1.369477,-0.72843 -1.95156,-1.13769 l -1.058333,-0.74409 v -0.89937 -0.89937 l 1.455208,-0.97433 c 0.800365,-0.53588 2.645833,-1.73884 4.101042,-2.67324 1.455208,-0.93441 4.992169,-3.18112 7.859914,-4.99269 l 5.214081,-3.29378 0.01144,-0.46302 c 0.0063,-0.25466 -0.05701,-0.46302 -0.140668,-0.46302 -0.08366,0 -0.980341,0.53578 -1.992626,1.19063 -1.012285,0.65484 -1.887917,1.19062 -1.945849,1.19062 -0.05793,0 -0.82234,0.47625 -1.698683,1.05834 -0.876344,0.58208 -1.65025,1.05833 -1.719792,1.05833 -0.06954,0 -0.843448,0.47625 -1.719792,1.05833 -0.876343,0.58209 -1.655188,1.05834 -1.730765,1.05834 -0.07558,0 -0.682533,0.38423 -1.348789,0.85385 l -1.211374,0.85386 -1.111465,-0.0325 c -0.611306,-0.0179 -1.612626,-0.11947 -2.225155,-0.22579 -0.61253,-0.10631 -1.323507,-0.42514 -1.57995,-0.70851 l -0.466259,-0.51521 -0.0963,-1.7665 c -0.05297,-0.97158 0.01986,-2.06416 0.16183,-2.42796 l 0.258134,-0.66146 5.783744,-3.68577 c 3.181059,-2.02718 6.55765,-4.1799 7.503536,-4.78382 0.945885,-0.60393 2.61276,-1.67827 3.704166,-2.38742 1.091406,-0.70916 3.175,-2.03898 4.630208,-2.95516 1.455208,-0.91619 2.86202,-1.66583 3.126248,-1.66588 0.264228,-4e-5 0.710713,0.12317 0.992188,0.27381 l 0.511772,0.2739 v 22.20068 22.20069 l -0.588038,0.41188 c -0.323421,0.22653 -0.710374,0.41012 -0.859896,0.40798 -0.149521,-0.002 -0.536414,-0.15098 -0.859762,-0.33073 z m 0.885273,-43.77391 c -0.05655,-0.0565 -0.515648,0.12907 -1.020223,0.41247 -0.504576,0.2834 -2.158686,1.33779 -3.675802,2.34308 -1.517116,1.00529 -2.933994,1.90967 -3.148618,2.00973 -0.214624,0.10006 -2.592881,1.61088 -5.285016,3.35738 -2.692136,1.7465 -6.155548,3.96605 -7.696473,4.93235 l -2.801681,1.75689 0.01547,1.55145 c 0.0085,0.85329 0.116719,1.55144 0.240468,1.55144 0.123748,0 0.744151,-0.35719 1.378672,-0.79375 0.634522,-0.43656 1.227307,-0.79375 1.3173,-0.79375 0.08999,0 0.880633,-0.47625 1.756976,-1.05833 0.876344,-0.58209 1.650997,-1.05834 1.721451,-1.05834 0.07046,0 0.809002,-0.44648 1.641216,-0.99219 0.832214,-0.5457 1.748416,-1.13163 2.036003,-1.30206 0.287588,-0.17044 2.308825,-1.408 4.491637,-2.75014 2.182812,-1.34214 4.043257,-2.4805 4.13432,-2.52969 0.09106,-0.0492 0.167977,1.46667 0.170918,3.36859 l 0.0053,3.45802 -1.89071,1.22974 c -1.03989,0.67635 -4.629147,2.98543 -7.976126,5.13129 -3.346979,2.14586 -6.710494,4.26971 -7.474478,4.71967 -0.763985,0.44996 -1.389063,0.92194 -1.389063,1.04884 0,0.1269 0.327422,0.40999 0.727604,0.6291 0.400183,0.2191 0.971548,0.53146 1.269701,0.69412 l 0.542097,0.29574 6.733944,-4.14987 c 3.70367,-2.28243 7.267804,-4.49821 7.920299,-4.92396 l 1.186354,-0.77407 0.171705,0.64203 c 0.09444,0.35311 0.169858,4.89042 0.1676,10.08291 -0.0023,5.19248 0.100991,9.54198 0.229441,9.66554 0.12845,0.12356 1.186046,0.81297 2.350212,1.53202 l 2.116667,1.30736 0.0678,-20.2454 c 0.03729,-11.13497 0.02153,-20.29166 -0.03501,-20.34821 z m 6.254016,36.3923 c -0.645742,-0.14465 -1.504495,-0.61242 -2.024253,-1.10261 l -0.902721,-0.85138 -0.352405,-1.18416 -0.352405,-1.18415 -0.0046,-13.49375 -0.0046,-13.49375 0.48203,-1.24925 c 0.265117,-0.68709 0.836078,-1.54716 1.268802,-1.91127 0.432723,-0.36411 1.277444,-0.79415 1.877157,-0.95563 0.599712,-0.16149 2.272256,-0.32368 3.716764,-0.36043 1.444508,-0.0368 3.240373,0.0288 3.990812,0.14563 0.750439,0.11685 1.630142,0.27763 1.954895,0.3573 0.324753,0.0797 1.000998,0.50529 1.502767,0.94585 0.501769,0.44056 1.004037,1.18298 1.116153,1.64982 l 0.203846,0.84881 0.181693,-1.56917 0.181693,-1.56917 0.477368,-0.34906 0.477367,-0.34906 h 4.531042 c 2.49207,0 5.23752,0.1274 6.10099,0.2831 0.86347,0.15571 2.01388,0.57242 2.55646,0.92604 0.54259,0.35362 1.02327,0.64295 1.06818,0.64295 0.0449,0 0.10166,-0.26559 0.12612,-0.5902 0.0245,-0.32461 0.25762,-0.74607 0.51815,-0.93658 l 0.47369,-0.34637 12.3043,0.0767 12.3043,0.0767 1.50277,0.73798 1.50277,0.73797 0.54775,1.1315 c 0.30126,0.62232 0.54775,1.47094 0.54775,1.88581 0,0.41487 0.0668,0.68755 0.14835,0.60596 0.0816,-0.0816 0.17226,-1.12407 0.20149,-2.31661 l 0.0531,-2.16826 0.51054,-0.37332 0.51054,-0.37332 h 5.10881 5.1088 l 0.52917,0.52917 0.52917,0.52917 0.004,0.99218 0.004,0.99219 0.55806,-0.87153 c 0.30694,-0.47935 1.01727,-1.1058 1.57852,-1.39213 0.56125,-0.28633 1.70711,-0.61416 2.54634,-0.72852 0.83923,-0.11435 2.41884,-0.19277 3.51025,-0.17428 1.09141,0.0185 2.57969,0.12404 3.30729,0.23454 0.72761,0.1105 1.77499,0.4535 2.32752,0.76222 l 1.00461,0.56131 0.56279,1.22677 0.56279,1.22677 0.64356,-1.29145 0.64356,-1.29145 1.02566,-0.52326 c 0.56412,-0.28779 1.71232,-0.61681 2.55155,-0.73117 0.83923,-0.11435 2.41885,-0.19277 3.51025,-0.17428 1.09141,0.0185 2.5769,0.12478 3.30109,0.23618 0.72418,0.11141 1.76438,0.43094 2.31154,0.71008 l 0.99484,0.50753 0.59741,1.12092 0.59741,1.12092 0.001,5.65857 0.001,5.65858 -0.52917,0.29455 c -0.29104,0.162 -0.55485,0.30039 -0.58624,0.30753 -0.0314,0.007 0.24244,0.60245 0.60851,1.32291 l 0.66558,1.30994 -0.0793,7.14375 -0.0793,7.14375 -0.55132,1.05833 -0.55131,1.05834 -1.16848,0.66145 -1.16847,0.66146 h -4.49792 -4.49791 l -1.24109,-0.61132 -1.24108,-0.61132 -0.65463,-1.31368 -0.65464,-1.31369 -0.16409,0.7471 c -0.0902,0.41091 -0.46138,1.06772 -0.82473,1.45957 -0.36335,0.39186 -1.04378,0.91687 -1.51207,1.1667 l -0.85142,0.45423 -3.87067,0.10541 -3.87067,0.10541 -1.421,-0.41551 c -0.78155,-0.22854 -1.69432,-0.68765 -2.02839,-1.02025 -0.33406,-0.3326 -0.77676,-0.84286 -0.98377,-1.1339 l -0.37638,-0.52916 -0.008,0.94161 c -0.005,0.51789 -0.1774,1.17274 -0.38393,1.45521 l -0.37552,0.51359 h -5.33635 -5.33635 l -0.44607,-0.55081 -0.44608,-0.55082 -0.42598,0.55082 -0.42598,0.55081 -3.2718,-0.0274 c -1.7995,-0.0151 -3.50993,-0.0426 -3.80098,-0.0611 -0.29104,-0.0185 -1.95274,0.0113 -3.69266,0.0662 -1.73992,0.0549 -3.4639,-0.0143 -3.83107,-0.1539 -0.36717,-0.1396 -0.75748,-0.3952 -0.86735,-0.56799 -0.10987,-0.1728 -0.20159,-6.09863 -0.20382,-13.16852 -0.002,-7.06989 -0.0629,-12.91319 -0.13484,-12.98513 -0.0719,-0.0719 -0.48865,-0.0783 -0.92604,-0.0141 l -0.79526,0.11672 v 12.77295 12.77295 l -0.50582,0.62462 -0.50582,0.62462 h -3.4535 -3.45351 l -0.45831,-0.45833 -0.45831,-0.45834 -0.0141,-12.94804 -0.0141,-12.94803 -0.85989,-0.10039 -0.8599,-0.1004 -0.006,0.67447 c -0.003,0.37097 -0.0478,2.10323 -0.0992,3.84948 -0.0515,1.74625 -0.22482,3.50318 -0.38527,3.90429 l -0.29172,0.72929 0.38013,1.51967 0.38013,1.51967 -0.0553,6.93602 -0.0553,6.93601 -0.47242,0.47232 -0.47243,0.47231 -3.23174,-0.0408 c -1.77746,-0.0224 -3.58893,-0.0408 -4.02549,-0.0408 -0.43657,0 -2.24804,0.0184 -4.0255,0.0408 l -3.231737,0.0408 -0.435704,-0.43575 c -0.239638,-0.23966 -0.499417,-1.00101 -0.577288,-1.69188 l -0.141584,-1.25613 -0.390328,0.76584 c -0.214681,0.42121 -0.636751,1.03588 -0.937933,1.36593 -0.301183,0.33005 -1.141753,0.77654 -1.867934,0.99219 l -1.320328,0.39209 -3.457706,-0.0283 c -1.901739,-0.0156 -3.962396,-0.14139 -4.579239,-0.27957 z m 9.033761,-3.43947 c 0.568184,-0.19452 1.25382,-0.65133 1.523634,-1.01513 0.279969,-0.3775 0.576869,-1.39977 0.691588,-2.38125 0.110559,-0.94588 0.187495,-6.72041 0.170969,-12.83229 l -0.03005,-11.1125 -0.312156,-1.11117 -0.312156,-1.11117 -0.783997,-0.55826 -0.783998,-0.55825 -1.789075,-0.18994 c -0.983991,-0.10447 -2.594868,-0.1701 -3.579727,-0.14585 -0.984858,0.0242 -2.294546,0.12123 -2.910416,0.2155 -0.615871,0.0943 -1.381701,0.37536 -1.701846,0.62465 -0.320145,0.24928 -0.764295,0.80914 -0.987,1.24412 l -0.404918,0.79088 0.0035,12.70287 0.0035,12.70287 0.478502,1.05834 c 0.263176,0.58208 0.768932,1.21329 1.123903,1.40268 0.354971,0.1894 1.237085,0.43631 1.960253,0.5487 0.723169,0.11238 2.505477,0.17611 3.960685,0.1416 1.455208,-0.0345 3.110711,-0.22189 3.678896,-0.4164 z m -5.081188,-3.97846 -0.3175,-0.3175 v -11.02718 -11.02719 l 0.419053,-0.34778 0.419053,-0.34779 0.440843,0.27801 0.440843,0.278 0.07356,10.81916 c 0.04046,5.95053 0.0084,11.08704 -0.07119,11.41446 -0.08275,0.34033 -0.346571,0.59531 -0.615955,0.59531 -0.259166,0 -0.614085,-0.14287 -0.78871,-0.3175 z m 79.235552,3.89657 1.10409,-0.44521 0.47801,-0.97162 0.478,-0.97161 0.005,-5.84329 0.005,-5.84328 -0.72443,-1.04553 -0.72444,-1.04553 -2.71514,-1.41396 c -1.49334,-0.77768 -2.88322,-1.57074 -3.08863,-1.76234 l -0.37348,-0.34839 -0.046,-2.99051 c -0.0253,-1.64478 0.0726,-3.2584 0.21751,-3.58582 0.14493,-0.32742 0.39323,-0.59349 0.55177,-0.59126 0.15854,0.002 0.43309,0.0961 0.61011,0.20856 l 0.32185,0.20452 0.075,3.16487 0.075,3.16487 h 2.91042 2.91041 l 0.0342,-2.77812 c 0.0188,-1.52797 -0.0285,-3.4116 -0.10508,-4.18585 -0.0789,-0.7977 -0.38454,-1.77226 -0.7053,-2.24896 l -0.56604,-0.84123 -1.04866,-0.35697 -1.04866,-0.35696 -3.175,-0.0115 c -1.74625,-0.006 -3.659,0.12319 -4.25057,0.28784 -0.59156,0.16465 -1.3192,0.5686 -1.61699,0.89765 -0.29779,0.32906 -0.66526,0.96937 -0.8166,1.42291 -0.15135,0.45354 -0.29213,2.61251 -0.31284,4.7977 -0.0212,2.23097 0.0944,4.4975 0.26349,5.16907 0.16577,0.65832 0.61703,1.49037 1.00379,1.8508 0.38645,0.36014 1.7742,1.22234 3.08389,1.91598 1.30968,0.69365 2.59239,1.4435 2.85045,1.66634 l 0.46921,0.40516 -0.0723,4.38179 -0.0723,4.38179 -0.49113,0.0943 c -0.27012,0.0519 -0.62326,-0.0378 -0.78475,-0.19929 l -0.29363,-0.29363 -0.0443,-4.03066 c -0.0244,-2.21687 -0.0582,-4.10366 -0.0751,-4.19288 -0.017,-0.0892 -1.34646,-0.15877 -2.95441,-0.15456 l -2.92353,0.008 0.044,4.97852 0.044,4.97853 0.51902,1.04904 0.51903,1.04905 1.10374,0.4031 c 0.60705,0.22171 1.46092,0.44228 1.89748,0.49015 0.43657,0.0479 2.04391,0.0639 3.57188,0.0355 l 2.77812,-0.0515 z m 15.43236,0.2728 c 0.50932,-0.10266 1.20829,-0.41696 1.55325,-0.69844 0.34497,-0.28148 0.78135,-0.95733 0.96974,-1.50188 l 0.34252,-0.99009 0.0121,-5.29167 0.0122,-5.29166 -0.49876,-1.10847 -0.49876,-1.10847 -1.02639,-0.64793 c -0.56451,-0.35637 -1.85348,-1.07483 -2.86437,-1.5966 -1.0109,-0.52176 -2.04635,-1.11373 -2.30101,-1.31547 l -0.46302,-0.36682 v -3.44825 -3.44825 l 0.39688,-0.1523 c 0.21828,-0.0838 0.57546,-0.0838 0.79375,0 0.21828,0.0838 0.41719,0.34792 0.44201,0.58701 0.0248,0.23909 0.0734,1.56581 0.10788,2.94826 0.0345,1.38244 0.0737,2.66639 0.0871,2.85322 l 0.0244,0.33968 2.84427,-0.0751 2.84427,-0.0751 0.075,-3.00099 c 0.0413,-1.65054 -0.0481,-3.66698 -0.19855,-4.48098 l -0.27359,-1.48 -0.57797,-0.61522 c -0.31788,-0.33836 -1.06196,-0.74875 -1.65353,-0.91195 -0.59156,-0.16321 -2.50431,-0.29399 -4.25056,-0.29061 l -3.175,0.006 -1.03306,0.35972 c -0.56819,0.19785 -1.2607,0.6666 -1.53892,1.04166 -0.27822,0.37507 -0.61372,1.14897 -0.74555,1.71979 -0.13182,0.57082 -0.21238,2.94286 -0.17901,5.27119 l 0.0607,4.23334 0.43407,0.79437 c 0.23874,0.43691 0.65462,0.98733 0.92418,1.22317 0.26956,0.23584 1.70807,1.06899 3.1967,1.85146 1.48862,0.78246 2.78991,1.60126 2.89175,1.81954 0.10185,0.21828 0.20781,2.06375 0.23548,4.10104 0.0277,2.03729 -0.0534,3.98031 -0.1802,4.31783 l -0.23052,0.61365 -0.59488,-0.0845 -0.59489,-0.0845 -0.13229,-4.36563 -0.13229,-4.36562 h -2.91042 -2.91041 l 0.006,5.02708 0.006,5.02709 0.39133,0.76995 c 0.21524,0.42348 0.69659,0.99572 1.06969,1.27166 0.37309,0.27594 1.26606,0.59341 1.98437,0.7055 0.71832,0.11209 2.43712,0.18062 3.81957,0.15229 1.38244,-0.0283 2.93026,-0.1355 3.43958,-0.23816 z m -78.58125,-6.36541 v -6.48229 h 0.60855 c 0.33469,0 0.75141,0.14287 0.92604,0.3175 l 0.3175,0.3175 v 6.16479 6.16479 h 2.91041 2.91042 v -6.34102 -6.34103 l -0.42722,-0.8959 c -0.23498,-0.49274 -0.78092,-1.10483 -1.21321,-1.36019 l -0.78599,-0.46429 0.80372,-0.56701 c 0.44205,-0.31186 0.99752,-0.99453 1.23438,-1.51704 l 0.43066,-0.95003 -0.0945,-5.0031 -0.0945,-5.0031 -0.36421,-0.7237 c -0.20485,-0.40705 -0.89629,-0.98405 -1.58029,-1.31875 l -1.21608,-0.59505 -5.09323,-0.0985 -5.093229,-0.0985 -0.01235,1.28498 c -0.0068,0.70673 -0.01347,7.65481 -0.01484,15.44018 -0.0014,7.78536 0.0042,14.2445 0.01235,14.35364 0.0082,0.10914 1.324529,0.19844 2.925259,0.19844 h 2.91041 z m 0.11248,-11.33331 c -0.0692,-0.18028 -0.093,-2.34748 -0.053,-4.81599 l 0.0728,-4.4882 0.66145,0.0934 c 0.36381,0.0514 0.74894,0.22998 0.85585,0.39688 0.10691,0.1669 0.19438,2.0894 0.19438,4.27221 0,2.18281 -0.0962,4.12037 -0.21383,4.30568 -0.1176,0.18531 -0.47889,0.38797 -0.80286,0.45036 -0.32396,0.0624 -0.64563,-0.0341 -0.71481,-0.21435 z m 18.18125,17.22029 c 0.0545,-0.32742 0.0915,-6.39961 0.0821,-13.49375 l -0.017,-12.89844 h 1.40391 1.4039 l 0.0248,-0.52916 c 0.0137,-0.29105 0.0248,-1.06495 0.0248,-1.7198 0,-0.65484 -0.0112,-1.36922 -0.0248,-1.5875 l -0.0248,-0.39687 h -5.82083 -5.82084 v 2.11667 2.11666 h 1.45521 1.45521 v 13.49375 13.49375 h 2.87957 2.87957 z m 10.749,-5.95313 0.0709,-6.41614 0.45831,0.004 c 0.25208,0.002 0.63691,0.11693 0.8552,0.2549 l 0.39687,0.25084 0.0463,5.89667 c 0.0255,3.24316 0.0552,6.04952 0.0661,6.23634 l 0.0199,0.33968 2.84427,-0.0751 2.84427,-0.0751 v -6.21771 -6.21771 l -0.36567,-0.86676 c -0.20112,-0.47672 -0.71287,-1.11398 -1.13722,-1.41615 l -0.77155,-0.54939 0.91369,-0.83281 c 0.50253,-0.45804 1.04024,-1.22661 1.19491,-1.70792 l 0.28122,-0.87512 -0.0577,-4.54884 -0.0577,-4.54884 -0.52916,-1.05833 -0.52917,-1.05834 -1.05833,-0.52714 -1.05834,-0.52715 -5.15937,-0.002 -5.15938,-0.002 -0.0503,15.21354 c -0.0277,8.36745 -7e-5,15.36642 0.0613,15.55327 l 0.11158,0.33973 2.84912,-0.0751 2.84912,-0.0752 z m 0.12162,-15.74345 0.0721,-4.8279 0.52917,0.0883 c 0.29104,0.0485 0.64823,0.20331 0.79375,0.34394 l 0.26458,0.25568 v 4.07455 4.07456 l -0.32714,0.32719 c -0.17993,0.17995 -0.56956,0.36418 -0.86586,0.4094 l -0.53872,0.0822 z m 19.81368,22.09345 c 0.0166,-0.10914 0.0561,-0.91281 0.0879,-1.78593 0.0318,-0.87313 0.0116,-1.7204 -0.0448,-1.88282 l -0.10261,-0.29532 -1.63893,0.0297 -1.63892,0.0297 -0.0362,-5.47762 -0.0362,-5.47763 1.74751,-0.0776 1.74751,-0.0776 0.0281,-1.91823 c 0.0154,-1.05503 -0.0701,-1.93311 -0.18999,-1.9513 -0.11993,-0.0182 -0.81336,-0.0628 -1.54096,-0.0992 -0.72761,-0.0364 -1.42945,-0.081 -1.55965,-0.0992 -0.1302,-0.0182 -0.23673,-1.75155 -0.23673,-3.85191 v -3.81884 l 0.30288,-0.0938 c 0.16658,-0.0516 0.92327,-0.0805 1.68153,-0.0643 0.77455,0.0166 1.41882,-0.095 1.47032,-0.25457 0.0504,-0.15625 0.0849,-1.05799 0.0766,-2.00388 l -0.0151,-1.71979 -4.69635,-0.0722 -4.69636,-0.0723 v 15.61652 15.61652 h 4.63021 c 2.54661,0 4.64376,-0.0893 4.66032,-0.19844 z m 1.1658,-8.37485 v -3.28162 l -1.45785,0.14315 c -0.80182,0.0787 -1.48999,0.16877 -1.52927,0.20009 -0.0393,0.0313 -0.0792,0.87808 -0.0887,1.8817 -0.01,1.00362 -0.007,2.32393 0.005,2.93403 l 0.0225,1.10927 1.12447,0.10128 c 0.61847,0.0557 1.30427,0.12208 1.524,0.1475 l 0.39952,0.0462 z m 17.16615,-5.94679 c -0.10405,-0.23588 -0.37329,-0.99442 -0.59831,-1.68565 -0.22502,-0.69122 -0.47415,-1.25495 -0.55362,-1.25272 -0.0795,0.002 -0.31369,0.11113 -0.52046,0.24201 l -0.37596,0.23795 0.40199,0.61789 c 0.22109,0.33984 0.5462,1.05792 0.72246,1.59572 l 0.32048,0.97783 0.3963,-0.15208 0.3963,-0.15207 z m -17.15469,-7.55889 c -0.0101,-0.9542 -0.10727,-1.7346 -0.21598,-1.73422 -0.1087,3.8e-4 -0.78097,6.9e-4 -1.49392,6.9e-4 h -1.29627 l -0.0928,1.12448 c -0.051,0.61846 -0.0569,1.37604 -0.013,1.6835 l 0.0798,0.55902 0.77319,-0.09 c 0.42526,-0.0495 1.0442,0.0124 1.37542,0.13752 0.33122,0.12515 0.66964,0.18849 0.75205,0.14075 0.0824,-0.0477 0.14158,-0.86751 0.1315,-1.82171 z"
         id="path60" /></g></g></svg>
